<svg width="448" height="518" viewBox="0 0 448 518" fill="none" xmlns="http://www.w3.org/2000/svg">
<g filter="url(#filter0_b_23_33)">
<path fill-rule="evenodd" clip-rule="evenodd" d="M1 516L12.15 501.805L23.3 516L34.45 501.805L45.6 516L56.75 501.805L67.9 516L79.05 501.805L90.2 516L101.35 501.805L112.5 516L123.65 501.805L134.8 516L145.95 501.805L157.1 516L168.25 501.805L179.4 516L190.55 501.805L201.7 516L212.85 501.805L224 516L235.15 501.805L246.3 516L257.45 501.805L268.6 516L279.75 501.805L290.9 516L302.05 501.805L313.2 516L324.35 501.805L335.5 516L346.65 501.805L357.8 516L368.95 501.805L380.1 516L391.25 501.805L402.4 516L413.55 501.805L424.7 516L435.85 501.805L447 516V1L246.3 1H1V516Z" fill="white" fill-opacity="0.46"/>
<path fill-rule="evenodd" clip-rule="evenodd" d="M1 516L12.15 501.805L23.3 516L34.45 501.805L45.6 516L56.75 501.805L67.9 516L79.05 501.805L90.2 516L101.35 501.805L112.5 516L123.65 501.805L134.8 516L145.95 501.805L157.1 516L168.25 501.805L179.4 516L190.55 501.805L201.7 516L212.85 501.805L224 516L235.15 501.805L246.3 516L257.45 501.805L268.6 516L279.75 501.805L290.9 516L302.05 501.805L313.2 516L324.35 501.805L335.5 516L346.65 501.805L357.8 516L368.95 501.805L380.1 516L391.25 501.805L402.4 516L413.55 501.805L424.7 516L435.85 501.805L447 516V1L246.3 1H1V516Z" stroke="#CB2130"/>
</g>
<defs>
<filter id="filter0_b_23_33" x="-7.5" y="-7.5" width="463" height="532.946" filterUnits="userSpaceOnUse" color-interpolation-filters="sRGB">
<feFlood flood-opacity="0" result="BackgroundImageFix"/>
<feGaussianBlur in="BackgroundImage" stdDeviation="4"/>
<feComposite in2="SourceAlpha" operator="in" result="effect1_backgroundBlur_23_33"/>
<feBlend mode="normal" in="SourceGraphic" in2="effect1_backgroundBlur_23_33" result="shape"/>
</filter>
</defs>
</svg>
