<svg width="142" height="85" viewBox="0 0 142 85" fill="none" xmlns="http://www.w3.org/2000/svg">
<path d="M140.512 45.219L140.417 44.3426L139.763 43.753C138.44 42.51 107.142 13.4763 94.371 8.69574C89.1734 6.75166 85.6817 5.26969 82.8597 4.07456C79.8289 2.59416 76.6341 1.47628 73.3412 0.744124C69.2915 -0.00482571 41.8523 -0.0207606 25.8448 0.058915C23.9945 0.0674316 22.1741 0.525979 20.5407 1.39496C18.9074 2.26394 17.5102 3.51723 16.4699 5.0466L3.5714 24.0572L0 53.2822L0.207269 53.8399C1.6166 56.8724 3.63459 59.583 6.13595 61.8034C8.63731 64.0238 11.5686 65.7066 14.748 66.7473C14.748 67.082 14.748 67.4325 14.748 67.7831C14.7579 72.2759 16.5269 76.5864 19.6765 79.792C22.8261 82.9977 27.1061 84.8439 31.6004 84.9355C36.0947 85.0272 40.4464 83.3569 43.7242 80.2823C47.0019 77.2077 48.9454 72.9729 49.1386 68.4842C62.914 68.4842 79.8941 68.309 94.9769 68.1815C95.3113 72.5282 97.2853 76.5856 100.499 79.5329C103.713 82.4801 107.928 84.097 112.289 84.0565C116.651 84.0161 120.835 82.3211 123.993 79.3147C127.152 76.3083 129.05 72.2149 129.304 67.8628H133.178C134.745 67.9011 136.29 67.4851 137.625 66.665C138.96 65.845 140.03 64.6559 140.704 63.2416C142.043 59.7996 140.895 48.5813 140.512 45.219ZM31.8875 80.2125C28.6249 80.2087 25.4944 78.9236 23.1711 76.6343C20.8477 74.345 19.5175 71.2348 19.4673 67.9743V67.7831C19.4381 64.8251 20.4667 61.9538 22.3679 59.6866C24.2692 57.4194 26.918 55.9054 29.8372 55.4172C32.7564 54.929 35.7541 55.4988 38.2902 57.0239C40.8263 58.549 42.7341 60.9291 43.6699 63.7356C44.1128 65.0392 44.339 66.4064 44.3396 67.7831C44.3396 68.0221 44.3396 68.2611 44.3396 68.5002C44.1523 71.6722 42.7582 74.6525 40.443 76.8302C38.1277 79.0079 35.0668 80.218 31.8875 80.2125ZM112.053 79.2723C108.98 79.2617 106.019 78.1173 103.738 76.0587C101.458 74 100.018 71.1721 99.6963 68.1177C99.672 67.6825 99.672 67.2463 99.6963 66.8111C99.6946 65.6291 99.8665 64.4533 100.206 63.3213C100.962 60.7676 102.518 58.524 104.646 56.921C106.773 55.3179 109.359 54.4401 112.024 54.4169C114.688 54.3937 117.289 55.2263 119.444 56.7921C121.6 58.3579 123.195 60.574 123.995 63.1141C124.368 64.3108 124.556 65.5575 124.553 66.8111C124.553 67.1776 124.553 67.5281 124.553 67.8787C124.288 70.9966 122.858 73.9005 120.547 76.012C118.237 78.1234 115.215 79.2875 112.085 79.2723H112.053ZM136.223 61.4409C135.602 63.0344 133.146 63.0344 133.035 63.0344H128.81C127.957 59.1867 125.808 55.7485 122.722 53.2952C119.636 50.842 115.801 49.5226 111.858 49.5581C107.915 49.5936 104.104 50.9817 101.063 53.4901C98.022 55.9984 95.9353 59.4748 95.1523 63.3372C79.8304 63.4806 62.4995 63.6081 48.5487 63.6718C47.6507 60.1049 45.6309 56.9203 42.7865 54.5865C39.9421 52.2527 36.4234 50.8929 32.7479 50.7074C29.0725 50.5219 25.4346 51.5203 22.3694 53.5557C19.3042 55.5912 16.9736 58.5563 15.7205 62.0146C11.0697 60.3319 7.211 56.9809 4.89473 52.6129L8.17914 25.7782L20.4718 7.7237C21.0734 6.8357 21.8835 6.10851 22.8313 5.60572C23.779 5.10293 24.8356 4.83983 25.9086 4.83944C52.0563 4.7279 69.9133 4.95099 72.4962 5.44498C75.4335 6.11048 78.2848 7.1103 80.9942 8.42484C83.8482 9.63591 87.3717 11.1497 92.697 13.2054C103.634 17.3007 131.265 42.4941 135.857 46.6691C136.51 52.7404 136.829 59.943 136.223 61.4409Z" fill="#CB2130"/>
<path d="M63.3586 15.4205H63.1194C62.7825 15.4183 62.4485 15.4833 62.137 15.6117C61.8255 15.7401 61.5427 15.9292 61.3052 16.1681C61.0676 16.407 60.8802 16.6908 60.7537 17.0029C60.6272 17.3151 60.5642 17.6493 60.5684 17.986C60.5684 21.8742 60.6641 28.8219 60.696 32.0089C60.7203 32.4416 60.9085 32.8488 61.2225 33.1478C61.5364 33.4467 61.9524 33.615 62.386 33.6183L96.1389 33.8733C96.4791 33.8873 96.8148 33.7921 97.0969 33.6017C97.379 33.4113 97.5927 33.1356 97.7068 32.815C97.8208 32.4944 97.8292 32.1458 97.7307 31.8201C97.6322 31.4944 97.432 31.2088 97.1593 31.005C91.2602 26.1926 78.1066 16.8068 63.3586 15.4205ZM65.4472 28.8378C65.4472 26.2723 65.4472 23.0852 65.4472 20.4241C72.9173 21.8756 80.0264 24.7891 86.3654 28.9972L65.4472 28.8378Z" fill="#CB2130"/>
</svg>
