<svg width="143" height="96" viewBox="0 0 143 96" fill="none" xmlns="http://www.w3.org/2000/svg">
<path d="M141.823 59.5132C141.44 57.7604 140.85 55.4657 140.101 52.8205C139.686 51.3226 139.224 49.7131 138.698 48.0399C138.028 45.7772 137.279 43.355 136.497 40.8691C136.003 39.2756 135.493 37.6821 134.903 36.0886C132.846 29.7146 130.63 23.3405 128.669 17.9067C128.031 16.1697 127.425 14.5603 126.883 13.1261L126.07 11.0705C124.848 8.06453 122.75 5.49456 120.05 3.69334C117.349 1.89211 114.17 0.942574 110.924 0.96766L20.1398 0.346191C10.5736 0.553348 0.736265 10.9112 0.736265 20.8706V66.3016C0.298457 67.7489 0.18151 69.2742 0.393529 70.7712C0.605548 72.2683 1.14144 73.7012 1.96394 74.9703C4.32362 78.4122 8.94731 80.3245 15.7234 80.6432C16.2882 84.7602 18.3256 88.5335 21.459 91.2651C24.5923 93.9967 28.6095 95.5017 32.7673 95.5017C36.9251 95.5017 40.9422 93.9967 44.0755 91.2651C47.2089 88.5335 49.2464 84.7602 49.8111 80.6432L89.6705 80.4838C90.2964 84.6065 92.4 88.3614 95.5896 91.0494C98.7792 93.7374 102.837 95.1752 107.009 95.0953C111.18 95.0154 115.18 93.4231 118.265 90.615C121.349 87.8068 123.307 83.9741 123.774 79.8305C127.505 78.8106 136.051 75.8945 140.053 69.7754C141.043 68.2807 141.712 66.5967 142.016 64.8301C142.321 63.0635 142.255 61.253 141.823 59.5132ZM129.944 36.1205L95.2987 36.4233V17.5402L123.615 17.8429C125.608 23.0856 127.872 29.6508 130.008 36.1205H129.944ZM5.45563 20.7909C5.45563 13.4448 13.1565 5.2064 20.1079 5.04705L110.955 5.74819C113.267 5.70402 115.537 6.36313 117.464 7.63812C119.392 8.91311 120.887 10.7437 121.749 12.8871L121.845 13.1261L90.5793 12.7915V41.3153L131.571 40.9807C132.352 43.4188 133.085 45.7612 133.787 48.0718L5.51939 47.3866L5.45563 20.7909ZM32.7673 90.7301C29.8906 90.7139 27.1089 89.6989 24.8984 87.8588C22.688 86.0188 21.1861 83.468 20.65 80.6432C20.3309 79.0656 20.3309 77.4402 20.65 75.8626C21.2027 73.0416 22.7191 70.5003 24.9396 68.6733C27.1602 66.8464 29.9469 65.8475 32.8231 65.8475C35.6992 65.8475 38.486 66.8464 40.7065 68.6733C42.9271 70.5003 44.4434 73.0416 44.9961 75.8626C45.1702 76.6689 45.2557 77.4918 45.2512 78.3166C45.2503 79.0922 45.1756 79.8658 45.028 80.6272C44.4906 83.4792 42.9692 86.0524 40.7288 87.8985C38.4883 89.7446 35.6709 90.7466 32.7673 90.7301ZM106.746 90.3158C103.89 90.3135 101.121 89.3285 98.906 87.5264C96.6906 85.7243 95.1634 83.215 94.5812 80.4201C94.415 79.591 94.3296 78.7478 94.3261 77.9023C94.3224 77.1432 94.3918 76.3854 94.5333 75.6395C95.0567 72.7941 96.5582 70.2207 98.7782 68.364C100.998 66.5073 103.797 65.484 106.692 65.4707C109.587 65.4575 112.395 66.4552 114.632 68.2916C116.869 70.1279 118.394 72.6874 118.943 75.528C119.091 76.3109 119.166 77.1057 119.166 77.9023C119.168 78.7104 119.088 79.5166 118.927 80.3085C118.37 83.128 116.851 85.6669 114.629 87.4919C112.408 89.3169 109.622 90.3149 106.746 90.3158ZM136.115 67.1302C133.34 71.4008 127.186 73.807 123.679 74.8587C122.954 70.8188 120.807 67.1713 117.626 64.5755C114.445 61.9797 110.439 60.6069 106.334 60.705C102.229 60.8032 98.2937 62.3659 95.2405 65.1107C92.1873 67.8556 90.2173 71.6015 89.6864 75.6714L49.8271 75.8308C49.2377 71.7371 47.1917 67.9929 44.0642 65.2847C40.9367 62.5764 36.9372 61.0857 32.7991 61.0857C28.6611 61.0857 24.6616 62.5764 21.5341 65.2847C18.4066 67.9929 16.3606 71.7371 15.7712 75.8308C10.7968 75.5599 7.41669 74.3488 5.96581 72.2613C5.51834 71.558 5.23572 70.7627 5.13909 69.9349C5.04246 69.1071 5.13432 68.2681 5.4078 67.4808L5.55128 67.0665V52.0875L135.222 52.7886C136.115 55.88 136.816 58.5571 137.247 60.5331C137.523 61.6539 137.561 62.8204 137.358 63.9569C137.155 65.0935 136.715 66.1746 136.067 67.1302H136.115Z" fill="#CB2130"/>
</svg>
