<svg width="130" height="106" viewBox="0 0 130 106" fill="none" xmlns="http://www.w3.org/2000/svg">
<path d="M128.873 63.4695C128.794 61.876 128.698 60.2825 128.602 58.689C128.156 51.2632 127.741 44.8892 127.709 44.3474V43.7259L125.717 40.6823L122.528 35.8062L113.583 22.1817L80.5956 21.8311L80.0057 63.9476H72.9586L25.7652 0H6.63265L10.4751 6.61307C10.4751 14.9153 10.4751 34.6588 10.4751 39.774C10.4758 40.6866 10.81 41.5675 11.4148 42.2512C12.0196 42.9348 12.8534 43.3743 13.7595 43.4869C14.3354 43.5033 14.9021 43.636 15.4255 43.877C15.9488 44.118 16.418 44.4623 16.8048 44.8892C17.39 45.7895 17.6384 46.8673 17.5062 47.9328V48.2834C17.5062 48.6339 17.3308 51.7094 12.7231 51.7094C12.2433 51.758 11.7587 51.6973 11.3058 51.5316C10.8529 51.366 10.4435 51.0999 10.1084 50.7533C9.10967 49.2804 8.65842 47.5045 8.8329 45.7337L6.4572 45.5266L4.06564 45.3035C4.06564 45.8612 3.65111 50.7692 6.56882 53.9563C7.3559 54.791 8.31185 55.4487 9.37299 55.8856C10.4341 56.3224 11.5761 56.5284 12.7231 56.4899C20.2645 56.4899 22.1458 50.9126 22.2893 48.5224C22.5909 46.2321 22.022 43.9121 20.695 42.0209C19.3728 40.3164 17.4523 39.1772 15.3219 38.8338C15.3219 34.3401 15.3219 23.4246 15.3219 14.7718L43.8932 63.8519H0.255154L0 90.1289H8.11541C8.66878 94.2517 10.6974 98.0346 13.826 100.778C16.9547 103.521 20.9716 105.039 25.1335 105.051C29.2954 105.062 33.3207 103.567 36.4647 100.841C39.6087 98.1156 41.6585 94.3441 42.235 90.2245H81.4407L83.0351 93.7462C83.3562 94.5813 83.7399 95.391 84.183 96.1683C85.955 99.2186 88.6227 101.65 91.8244 103.134C95.026 104.617 98.6068 105.081 102.081 104.462C105.555 103.842 108.755 102.17 111.246 99.6718C113.737 97.1735 115.399 93.9699 116.007 90.4954H119.514C120.765 90.6138 122.027 90.4848 123.228 90.1157C124.429 89.7466 125.546 89.1446 126.514 88.3442C127.545 87.3542 128.347 86.1511 128.865 84.819C129.383 83.4868 129.603 82.0577 129.511 80.6316C129.575 77.094 129.256 70.2579 128.873 63.4695ZM15.3061 5.33826V4.78053H23.2779L67.0594 63.9157H49.4256L15.3061 5.33826ZM25.1274 100.391C22.2226 100.388 19.4103 99.3703 17.1771 97.5137C14.9439 95.6571 13.4304 93.0787 12.8985 90.2245C12.757 89.4787 12.6876 88.7209 12.6913 87.9618C12.6948 87.1162 12.7802 86.2731 12.9463 85.444C13.5832 82.4443 15.3072 79.7858 17.7867 77.9796C20.2661 76.1734 23.3262 75.347 26.3784 75.6594C29.4306 75.9718 32.2595 77.4008 34.3213 79.6718C36.3831 81.9427 37.5321 84.8953 37.5475 87.9618C37.5455 88.7478 37.4709 89.5319 37.3244 90.3042C36.7771 93.1383 35.2612 95.6942 33.0362 97.5343C30.8112 99.3744 28.0153 100.384 25.1274 100.391V100.391ZM79.5593 85.6352L42.1553 85.5237C41.5634 81.4359 39.5204 77.6971 36.3991 74.99C33.2778 72.2829 29.2865 70.7881 25.1538 70.7784C21.0212 70.7688 17.0229 72.2449 13.889 74.9374C10.755 77.6298 8.69446 81.359 8.08349 85.444H4.76717L4.92666 68.7122H79.8623L79.5593 85.6352ZM122.974 45.2557C123.086 47.0245 123.437 52.299 123.787 58.3703L98.9788 56.8724L98.7396 40.3158C106.297 40.3158 114.109 40.3955 119.849 40.507L122.974 45.2557ZM99.0585 99.9768C96.2638 99.9727 93.5523 99.0266 91.3621 97.2917C89.172 95.5567 87.6312 93.1342 86.9891 90.4158C86.751 89.4784 86.6332 88.5145 86.6384 87.5474C86.6508 84.4186 87.8435 81.4096 89.9782 79.1211C92.113 76.8326 95.0328 75.433 98.1548 75.2016C101.277 74.9703 104.371 75.9242 106.82 77.873C109.269 79.8218 110.893 82.6222 111.367 85.7149C111.45 86.3223 111.492 86.9345 111.495 87.5474C111.496 88.5415 111.372 89.5318 111.128 90.4954C110.47 93.1898 108.929 95.5867 106.751 97.3048C104.572 99.023 101.881 99.9635 99.1064 99.9768H99.0585ZM123.389 84.7429C122.409 85.501 121.178 85.8598 119.945 85.7468H116.182C115.801 82.1862 114.318 78.8332 111.94 76.1549C109.561 73.4765 106.407 71.6064 102.915 70.8049C99.4227 70.0034 95.7676 70.3105 92.4586 71.6835C89.1495 73.0564 86.3514 75.4269 84.4541 78.4644L84.5975 68.7122V63.9316L85.1237 26.6435L110.793 26.9144L116.533 35.6628C111.75 35.6628 105.165 35.5512 96.1727 35.5512H93.7492L94.1319 61.3979L123.931 63.1827C124.329 70.0985 124.664 77.1259 124.664 80.7113C124.748 81.4315 124.682 82.1613 124.471 82.8549C124.259 83.5486 123.907 84.1913 123.436 84.7429H123.389Z" fill="#CB2130"/>
</svg>
