<svg width="50" height="50" viewBox="0 0 50 50" fill="none" xmlns="http://www.w3.org/2000/svg">
<path fill-rule="evenodd" clip-rule="evenodd" d="M8.33823 0H41.6627C46.2453 0 50 3.75381 50 8.33823V41.6627C50 46.2462 46.2453 50 41.6627 50H8.33823C3.75381 50 0 46.2462 0 41.6627V8.33823C0 3.75381 3.75381 0 8.33823 0Z" fill="url(#paint0_linear_31_693)"/>
<path fill-rule="evenodd" clip-rule="evenodd" d="M36.635 25C36.635 22.6988 35.9526 20.4493 34.6742 18.536C33.3957 16.6226 31.5786 15.1313 29.4525 14.2507C27.3265 13.3701 24.9871 13.1397 22.7302 13.5886C20.4732 14.0375 18.4 15.1457 16.7729 16.7728C15.1457 18.4 14.0376 20.4732 13.5886 22.7301C13.1397 24.9871 13.3701 27.3265 14.2507 29.4525C15.1313 31.5785 16.6226 33.3957 18.536 34.6741C20.4493 35.9526 22.6989 36.635 25 36.635C26.528 36.6352 28.0411 36.3344 29.4528 35.7498C30.8646 35.1652 32.1473 34.3082 33.2277 33.2277C34.3082 32.1473 35.1652 30.8645 35.7498 29.4528C36.3345 28.0411 36.6353 26.528 36.635 25ZM36.4147 11.7837C36.0444 11.7837 35.6824 11.8935 35.3745 12.0992C35.0666 12.3049 34.8267 12.5974 34.6849 12.9395C34.5432 13.2816 34.5062 13.6581 34.5784 14.0212C34.6506 14.3844 34.829 14.7181 35.0908 14.9799C35.3527 15.2418 35.6863 15.4201 36.0495 15.4923C36.4127 15.5646 36.7891 15.5275 37.1312 15.3858C37.4734 15.2441 37.7658 15.0041 37.9715 14.6962C38.1772 14.3883 38.2871 14.0263 38.2871 13.656C38.2872 13.4101 38.2388 13.1665 38.1448 12.9393C38.0507 12.7121 37.9128 12.5057 37.7389 12.3318C37.5651 12.1579 37.3586 12.02 37.1314 11.9259C36.9042 11.8319 36.6607 11.7835 36.4147 11.7837ZM15.4888 9.09267H34.5094C36.2044 9.09679 37.8288 9.77202 39.0273 10.9707C40.2257 12.1693 40.9007 13.7938 40.9046 15.4888V34.5093C40.9024 36.205 40.228 37.8305 39.0292 39.0297C37.8304 40.2289 36.205 40.9038 34.5094 40.9064H15.4898C13.7944 40.9025 12.1697 40.2273 10.971 39.0284C9.77226 37.8295 9.09724 36.2047 9.0936 34.5093V15.4897C9.09893 13.795 9.77452 12.1712 10.9729 10.9729C12.1712 9.7745 13.795 9.09891 15.4898 9.09359L15.4888 9.09267ZM34.5094 6.96153H15.4898C10.8007 6.96153 6.96155 10.8007 6.96155 15.4897V34.5093C6.96736 36.7694 7.86774 38.9352 9.46583 40.5333C11.0639 42.1314 13.2297 43.0317 15.4898 43.0376H34.5094C36.77 43.0334 38.9369 42.1336 40.5355 40.5352C42.1341 38.9368 43.0341 36.77 43.0385 34.5093V15.4897C43.0385 10.8007 39.2076 6.96153 34.5112 6.96153H34.5094ZM15.7807 25C15.7805 23.1763 16.3212 21.3936 17.3342 19.8772C18.3473 18.3608 19.7873 17.1788 21.4721 16.4809C23.1569 15.7829 25.0109 15.6002 26.7995 15.956C28.5881 16.3117 30.2311 17.1899 31.5206 18.4794C32.8102 19.7689 33.6883 21.4119 34.0441 23.2005C34.3998 24.9892 34.2171 26.8431 33.5192 28.5279C32.8212 30.2128 31.6393 31.6527 30.1229 32.6658C28.6065 33.6789 26.8237 34.2195 25 34.2193C22.5551 34.2186 20.2106 33.247 18.4818 31.5182C16.753 29.7894 15.7814 27.4449 15.7807 25Z" fill="white"/>
<defs>
<linearGradient id="paint0_linear_31_693" x1="41.748" y1="40.1722" x2="7.53332" y2="9.17618" gradientUnits="userSpaceOnUse">
<stop stop-color="#FEC053"/>
<stop offset="0.33" stop-color="#F2203E"/>
<stop offset="0.65" stop-color="#B729A8"/>
<stop offset="1" stop-color="#5342D6"/>
</linearGradient>
</defs>
</svg>
