<svg width="17" height="15" viewBox="0 0 17 15" fill="none" xmlns="http://www.w3.org/2000/svg">
<path fill-rule="evenodd" clip-rule="evenodd" d="M6.51697 6.51636C6.76911 2.87532 9.79916 0 13.5 0V1C10.3527 1 7.76971 3.42725 7.51981 6.51636L9.32843 6.51636C9.57171 4.4258 11.3466 2.8033 13.5 2.8033V3.8033C11.9006 3.8033 10.5738 4.97905 10.3374 6.51636L16.5 6.51636V7.51636L10.34 7.51636C10.5832 9.04568 11.9062 10.2131 13.5 10.2131V11.2131C11.3522 11.2131 9.58093 9.59906 9.33035 7.51636L7.52115 7.51636C7.7788 10.5977 10.3582 13.0164 13.5 13.0164V14.0164C9.80469 14.0164 6.77815 11.1497 6.51812 7.51636L1.70711 7.51636L4.03553 9.84478C4.2308 10.04 4.2308 10.3566 4.03553 10.5519C3.84027 10.7472 3.52369 10.7472 3.32843 10.5519L0.146446 7.36991C-0.0488148 7.17465 -0.0488148 6.85806 0.146446 6.6628L3.32843 3.48082C3.52369 3.28556 3.84027 3.28556 4.03553 3.48082C4.2308 3.67608 4.2308 3.99267 4.03553 4.18793L1.70711 6.51636L6.51697 6.51636Z" fill="#656565"/>
</svg>
