<svg width="166" height="158" viewBox="0 0 166 158" fill="none" xmlns="http://www.w3.org/2000/svg">
<path fill-rule="evenodd" clip-rule="evenodd" d="M142.612 19.7925C155.411 31.5916 163.535 47.4413 165.547 64.5385C165.832 66.9907 165.983 69.456 166 71.9239V75.6166C165.23 88.3168 161.028 100.589 153.823 111.178C146.618 121.766 136.67 130.292 124.995 135.882L115.79 127.868C126.623 123.6 136.013 116.439 142.889 107.201C149.766 97.9622 153.852 87.0183 154.683 75.6166H132.049V64.5385H154.419C152.398 50.3696 145.442 37.3181 134.727 27.5892C124.011 17.8603 110.193 12.0507 95.608 11.142V28.3869H84.555V11.2528C74.188 12.168 64.2019 15.5282 55.4511 21.046C46.7003 26.5638 39.4455 34.0747 34.3074 42.9362L26.989 33.7783C33.2864 24.2071 41.7591 16.1906 51.7451 10.3549C61.7311 4.51928 72.9601 1.02251 84.555 0.137742C86.1743 -0.0503136 87.8534 -0.00383168 89.2728 0.035462C89.8045 0.050179 90.2997 0.0638876 90.7417 0.0638876H95.608C113.163 1.0052 129.813 7.99338 142.612 19.7925ZM89.3459 117.048L78.3684 128.126C73.7434 126.001 69.2915 123.532 65.052 120.741C54.724 111.833 45.1837 102.087 36.533 91.6056C33.8659 87.4301 31.5569 83.0454 29.6296 78.4965L42.3424 69.154L44.3041 62.6548L22.1604 35.5504C16.7446 37.9594 11.5671 40.8519 6.69377 44.1913C2.94927 47.5707 0.578042 52.1606 0.0167195 57.1158C-0.473686 74.3607 9.90027 92.1965 21.1041 106.524L20.8778 106.746C24.974 111.796 29.3436 116.628 33.9678 121.221C34.1366 121.435 34.3261 121.633 34.5337 121.812C38.6521 126.093 42.9963 130.161 47.5483 133.998H47.7746C61.9209 145.667 80.1036 156.893 98.4372 157.816C103.672 157.748 108.728 155.938 112.772 152.683C116.656 148.415 120.129 143.804 123.146 138.909L96.3247 115.977L89.3459 117.048ZM52.5656 86.8794C54.3008 84.8854 56.5642 82.1158 59.3558 78.6078C63.4676 73.7334 66.6364 69.5606 69.1262 66.1634C71.0356 63.8049 72.2139 60.9598 72.5213 57.9655C72.5723 56.6221 72.1156 55.3074 71.2387 54.2728C70.8531 53.8294 70.373 53.4739 69.8321 53.2315C69.2911 52.9891 68.7025 52.8656 68.1076 52.8696C65.6933 52.8696 63.8449 54.8267 62.6 58.5195C62.0441 60.2141 61.2843 61.8379 60.3366 63.3569C59.9602 63.9076 59.4394 64.349 58.8288 64.6349C58.2182 64.9208 57.5402 65.0406 56.866 64.9817C56.0943 64.9935 55.3299 64.8334 54.6306 64.5135C53.9313 64.1937 53.3155 63.7224 52.8296 63.1353C51.6214 61.8082 50.9858 60.0742 51.0566 58.2979C51.0975 56.5976 51.4159 54.9146 51.9997 53.3127C52.6211 51.4808 53.4969 49.7412 54.6026 48.143C56.1904 45.8973 58.2971 44.0501 60.7516 42.7516C63.0758 41.545 65.6654 40.9113 68.2962 40.9053C70.6384 40.8765 72.9618 41.3163 75.1242 42.1977C77.0626 42.9924 78.8101 44.1747 80.2546 45.6688C81.7008 47.1664 82.8178 48.9385 83.5365 50.8756C84.3359 52.9519 84.7325 55.156 84.706 57.3747C84.5904 62.1559 82.97 66.7856 80.066 70.6315C76.0673 76.1023 71.7338 81.3309 67.0891 86.2886H77.7271C83.2347 86.2886 86.0263 88.3196 86.0263 92.1969C86.0263 96.0743 83.2347 98.0314 77.7271 98.0314H57.1301C52.3769 98.0314 50.0381 95.8896 50.0381 92.1969C50.2397 90.195 51.131 88.3198 52.5656 86.8794ZM116.251 41.9912C118.341 42.3185 120.233 43.3918 121.562 45.004C123.46 47.8565 124.324 51.251 124.014 54.642V74.9518C124.766 74.8369 125.534 74.8948 126.259 75.1209C126.984 75.347 127.645 75.7351 128.191 76.2545C128.736 76.774 129.15 77.4105 129.401 78.1137C129.651 78.8169 129.732 79.5676 129.635 80.3063C129.699 81.0351 129.616 81.7694 129.39 82.4666C129.163 83.1638 128.797 83.8101 128.314 84.3682C127.104 85.3254 125.564 85.7884 124.014 85.6607V91.9383C124.154 93.7365 123.617 95.5228 122.505 96.9604C121.983 97.5367 121.336 97.9916 120.612 98.2919C119.887 98.5922 119.104 98.7302 118.318 98.6959C115.036 98.6959 113.376 96.2957 113.376 91.569V85.5499H98.2864C97.3067 85.6121 96.3242 85.4807 95.3974 85.1635C94.4707 84.8463 93.6186 84.3498 92.8919 83.7036C92.2516 83.0332 91.7575 82.2422 91.4397 81.3788C91.1219 80.5153 90.9871 79.5976 91.0435 78.6815C91.0396 77.0043 91.2939 75.3362 91.798 73.7333C92.5671 71.8301 93.5142 70.0006 94.6272 68.2681L106.472 47.8843C107.377 46.0882 108.663 44.502 110.245 43.2315C112.021 42.1057 114.161 41.6639 116.251 41.9912ZM101.417 74.9518H113.527V53.7926L101.417 74.9518Z" fill="#CB2130"/>
</svg>
