<svg width="27" height="29" viewBox="0 0 27 29" fill="none" xmlns="http://www.w3.org/2000/svg">
<path fill-rule="evenodd" clip-rule="evenodd" d="M11.6167 21.0096L13.4771 25.8896L15.3183 21.0662L14.3347 17.6489C14.423 17.5657 14.4812 17.449 14.4812 17.3176V16.5328C14.4812 16.2833 14.2806 16.08 14.0369 16.08H12.8747C12.6304 16.08 12.4305 16.2833 12.4305 16.5328V17.3176C12.4305 17.47 12.5106 17.5985 12.6242 17.681L11.6167 21.0096Z" fill="#CB2130"/>
<path fill-rule="evenodd" clip-rule="evenodd" d="M18.2851 16.0186L13.4767 28.6109L8.67382 16.0158C3.80864 17.9635 1.41711 22.7791 0.439697 28.6878H26.5137C25.5336 22.7819 23.1475 17.9676 18.2851 16.0186Z" fill="#CB2130"/>
<path fill-rule="evenodd" clip-rule="evenodd" d="M13.5304 0.324913C9.61053 0.326311 6.43188 3.57032 6.43188 7.57118C6.43188 11.5741 9.61053 14.8174 13.5304 14.8174C17.4497 14.8174 20.6263 11.5741 20.6276 7.57118C20.6263 3.57032 17.4497 0.326311 13.5304 0.324913ZM13.5305 13.5772C10.3916 13.5716 7.83988 11.0648 7.66534 7.90744C9.00962 6.70403 9.95692 5.12044 10.282 3.33839C11.9227 5.21269 14.4299 6.41331 17.2403 6.41331C17.9323 6.41331 18.6031 6.33643 19.2492 6.19667C19.3512 6.63904 19.41 7.09748 19.4114 7.5713C19.4059 10.8866 16.7776 13.5716 13.5305 13.5772Z" fill="#CB2130"/>
</svg>
