<svg width="17" height="15" viewBox="0 0 17 15" fill="none" xmlns="http://www.w3.org/2000/svg">
<path fill-rule="evenodd" clip-rule="evenodd" d="M9.98303 6.51636C9.73089 2.87532 6.70084 0 3 0V1C6.14734 1 8.73029 3.42725 8.98019 6.51636L7.17157 6.51636C6.92829 4.4258 5.1534 2.8033 3 2.8033V3.8033C4.5994 3.8033 5.92621 4.97905 6.16256 6.51636L0 6.51636V7.51636L6.16002 7.51636C5.91684 9.04568 4.59375 10.2131 3 10.2131V11.2131C5.14781 11.2131 6.91907 9.59906 7.16965 7.51636L8.97885 7.51636C8.7212 10.5977 6.1418 13.0164 3 13.0164V14.0164C6.69531 14.0164 9.72185 11.1497 9.98188 7.51636L14.7929 7.51636L12.4645 9.84478C12.2692 10.04 12.2692 10.3566 12.4645 10.5519C12.6597 10.7472 12.9763 10.7472 13.1716 10.5519L16.3536 7.36991C16.5488 7.17465 16.5488 6.85806 16.3536 6.6628L13.1716 3.48082C12.9763 3.28556 12.6597 3.28556 12.4645 3.48082C12.2692 3.67608 12.2692 3.99267 12.4645 4.18793L14.7929 6.51636L9.98303 6.51636Z" fill="#656565"/>
</svg>
