<svg width="59" height="14" viewBox="0 0 59 14" fill="none" xmlns="http://www.w3.org/2000/svg">
<path fill-rule="evenodd" clip-rule="evenodd" d="M59 7.72422H46.7368C46.3979 9.3767 44.9219 10.6208 43.1529 10.6208C41.3839 10.6208 39.9079 9.3767 39.569 7.72422H0V7.24146H39.5046C39.4998 7.16181 39.4959 7.08119 39.4959 7.00008C39.4959 5.0005 41.1332 3.37939 43.1529 3.37939C45.1725 3.37939 46.8099 5.0005 46.8099 7.00008C46.8099 7.08119 46.806 7.16181 46.8011 7.24146H59V7.72422Z" fill="#514F4F"/>
<path fill-rule="evenodd" clip-rule="evenodd" d="M28.5247 3.37939C30.5444 3.37939 32.1817 5.0005 32.1817 7.00008C32.1817 8.99967 30.5444 10.6208 28.5247 10.6208C26.505 10.6208 24.8677 8.99967 24.8677 7.00008C24.8677 5.0005 26.505 3.37939 28.5247 3.37939Z" fill="#514F4F"/>
<path d="M16.6158 7.00008C16.6158 4.15798 14.2927 1.87939 11.4588 1.87939C8.62486 1.87939 6.30176 4.15798 6.30176 7.00008C6.30176 9.84218 8.62486 12.1208 11.4588 12.1208C14.2927 12.1208 16.6158 9.84218 16.6158 7.00008Z" fill="#CB2130" stroke="#514F4F" stroke-width="3"/>
</svg>
