<svg width="51" height="52" viewBox="0 0 51 52" fill="none" xmlns="http://www.w3.org/2000/svg">
<rect width="51" height="51" rx="9" fill="#4C75A3"/>
<g clip-path="url(#clip0_31_696)">
<rect y="0.039978" width="50.9818" height="51.8922" rx="22" fill="#4C75A3"/>
<path d="M40.221 18.6028C39.8113 18.2569 38.2182 18.2705 36.6341 18.2796C35.05 18.2887 33.4159 18.2796 33.0472 18.4435C32.6784 18.6074 31.9319 20.4373 30.9533 22.3445C29.8153 24.5113 28.4133 26.596 27.5256 26.5824C26.3786 26.5824 26.6426 23 26.7108 20.3872C26.7564 18.6529 26.4741 18.1112 26.2192 17.9382C25.4951 17.5786 24.7312 17.3051 23.9433 17.1234C23.9433 17.1234 18.9361 16.7456 18.2351 18.9169C19.1865 19.0444 20.8252 18.7394 20.1925 25.4444C20.1606 25.7676 19.4277 28.5306 17.0926 24.7889C16.519 23.8785 14.2795 18.2842 13.5057 18.266C10.9156 18.1932 8.38016 18.0885 7.47432 18.5892C6.64587 19.0444 8.58955 22.909 11.8761 28.0527C14.5344 32.2723 17.3794 35.5452 22.3046 36.3827C23.215 36.4783 25.6366 36.5876 26.3786 36.2234C26.8975 35.9685 26.2693 32.3224 28.0127 31.981C28.7956 31.8308 31.7681 35.7682 32.906 36.2234C33.5888 36.4965 35.1046 36.5967 36.6523 36.5466C38.332 36.4965 40.221 36.6968 40.4031 35.5679C40.8128 33.0553 35.3504 29.7824 35.1866 28.2256C35.0682 27.115 37.1849 25.0393 38.2864 23.4962C39.602 21.598 41.0586 19.3084 40.221 18.6028Z" fill="white"/>
</g>
<defs>
<clipPath id="clip0_31_696">
<rect width="51" height="51" fill="white" transform="translate(0 0.039978)"/>
</clipPath>
</defs>
</svg>
