<svg width="569" height="87" viewBox="0 0 569 87" fill="none" xmlns="http://www.w3.org/2000/svg">
<path d="M54.6 35.933L53.6253 34.1866L49.7718 36.3374L53.9294 37.8172L54.6 35.933ZM63.69 42.296L62.0809 43.4837L62.0877 43.493L62.0947 43.5022L63.69 42.296ZM59.246 67.546L60.4249 69.1616L60.4287 69.1588L59.246 67.546ZM0.262 73H-1.738V75H0.262V73ZM0.262 2.3V0.299995H-1.738V2.3H0.262ZM56.418 7.148L55.2978 8.80492L55.3086 8.8121L56.418 7.148ZM61.266 29.671L59.575 28.603L59.5649 28.6191L59.555 28.6354L61.266 29.671ZM23.694 29.469H21.694V31.469H23.694V29.469ZM23.694 18.965V16.965H21.694V18.965H23.694ZM23.694 45.225V43.225H21.694V45.225H23.694ZM23.694 56.335H21.694V58.335H23.694V56.335ZM53.9294 37.8172C57.603 39.1248 60.2739 41.0355 62.0809 43.4837L65.2992 41.1083C62.9315 37.9005 59.5424 35.5692 55.2707 34.0488L53.9294 37.8172ZM62.0947 43.5022C63.8772 45.8597 64.821 48.8168 64.821 52.497H68.821C68.821 48.0972 67.6775 44.2536 65.2853 41.0898L62.0947 43.5022ZM64.821 52.497C64.821 58.1973 62.593 62.6114 58.0633 65.9332L60.4287 69.1588C65.999 65.074 68.821 59.4553 68.821 52.497H64.821ZM58.0671 65.9304C53.5565 69.2219 46.9649 71 38.036 71V75C47.4218 75 54.9702 73.1421 60.4249 69.1616L58.0671 65.9304ZM38.036 71H0.262V75H38.036V71ZM2.262 73V2.3H-1.738V73H2.262ZM0.262 4.3H36.117V0.299995H0.262V4.3ZM36.117 4.3C44.6641 4.3 50.9781 5.8845 55.2979 8.80488L57.5382 5.49111C52.2965 1.94749 45.0765 0.299995 36.117 0.299995V4.3ZM55.3086 8.8121C59.5966 11.6708 61.69 15.5893 61.69 20.783H65.69C65.69 14.2607 62.9354 9.08924 57.5274 5.4839L55.3086 8.8121ZM61.69 20.783C61.69 23.8155 60.9669 26.3992 59.575 28.603L62.957 30.739C64.7971 27.8255 65.69 24.4838 65.69 20.783H61.69ZM59.555 28.6354C58.2049 30.8659 56.2514 32.7209 53.6253 34.1866L55.5747 37.6794C58.7393 35.9131 61.2297 33.5934 62.977 30.7066L59.555 28.6354ZM23.694 31.469H33.794V27.469H23.694V31.469ZM33.794 31.469C35.9962 31.469 38.0215 30.9905 39.5082 29.6832C41.044 28.3327 41.652 26.4149 41.652 24.318H37.652C37.652 25.6551 37.2837 26.3127 36.8668 26.6793C36.4009 27.089 35.4971 27.469 33.794 27.469V31.469ZM41.652 24.318C41.652 22.1766 41.0578 20.2169 39.5366 18.8268C38.0496 17.468 36.0125 16.965 33.794 16.965V20.965C35.4808 20.965 36.3727 21.3542 36.8384 21.7797C37.2698 22.1739 37.652 22.8907 37.652 24.318H41.652ZM33.794 16.965H23.694V20.965H33.794V16.965ZM21.694 18.965V29.469H25.694V18.965H21.694ZM36.925 58.335C39.1687 58.335 41.222 57.7943 42.7077 56.3598C44.2065 54.9127 44.783 52.8908 44.783 50.679H40.783C40.783 52.2379 40.3832 53.0439 39.9293 53.4822C39.4623 53.9331 38.5866 54.335 36.925 54.335V58.335ZM44.783 50.679C44.783 48.5146 44.1951 46.5341 42.6813 45.1247C41.1945 43.7404 39.1518 43.225 36.925 43.225V47.225C38.6035 47.225 39.4898 47.6186 39.9557 48.0523C40.3946 48.4609 40.783 49.2074 40.783 50.679H44.783ZM36.925 43.225H23.694V47.225H36.925V43.225ZM21.694 45.225V56.335H25.694V45.225H21.694ZM23.694 58.335H36.925V54.335H23.694V58.335ZM94.8146 69.869L95.7404 68.0962L94.8146 69.869ZM80.5736 56.739L78.864 57.777L78.8696 57.786L80.5736 56.739ZM80.5736 18.662L82.2776 19.7091L82.2831 19.7L80.5736 18.662ZM135.821 5.431L136.746 3.65818V3.65818L135.821 5.431ZM150.062 18.662L148.352 19.7L148.358 19.709L150.062 18.662ZM150.062 56.739L151.766 57.7861L151.771 57.777L150.062 56.739ZM135.821 69.869L136.746 71.6418L135.821 69.869ZM123.297 53.204L124.326 54.919L124.333 54.9148L124.339 54.9106L123.297 53.204ZM129.054 47.043L130.815 47.9912L130.819 47.982L130.824 47.9727L129.054 47.043ZM129.054 28.358L127.283 29.2877L127.288 29.297L127.293 29.3062L129.054 28.358ZM123.297 22.197L122.232 23.8903L122.26 23.9079L122.289 23.9246L123.297 22.197ZM107.238 22.197L108.267 23.912L108.274 23.9078L108.28 23.9036L107.238 22.197ZM101.582 28.358L103.343 29.3062L103.347 29.297L103.352 29.2877L101.582 28.358ZM101.582 47.043L99.8108 47.9727L99.8157 47.982L99.8206 47.9912L101.582 47.043ZM107.238 53.204L106.173 54.8973L106.201 54.9149L106.23 54.9316L107.238 53.204ZM115.318 72.616C107.994 72.616 101.484 71.0954 95.7404 68.0962L93.8888 71.6418C100.266 74.9719 107.423 76.616 115.318 76.616V72.616ZM95.7404 68.0962C89.9864 65.0913 85.5143 60.9595 82.2776 55.6919L78.8696 57.786C82.5008 63.6958 87.5227 68.3173 93.8888 71.6418L95.7404 68.0962ZM82.2831 55.701C79.0522 50.3795 77.4226 44.38 77.4226 37.65H73.4226C73.4226 45.06 75.2269 51.7865 78.864 57.777L82.2831 55.701ZM77.4226 37.65C77.4226 30.9198 79.0522 24.9582 82.2776 19.709L78.8696 17.6149C75.2269 23.5431 73.4226 30.2402 73.4226 37.65H77.4226ZM82.2831 19.7C85.5213 14.3665 89.9925 10.2055 95.7404 7.20382L93.8888 3.65818C87.5166 6.98584 82.4938 11.6455 78.864 17.624L82.2831 19.7ZM95.7404 7.20382C101.484 4.20461 107.994 2.684 115.318 2.684V-1.316C107.423 -1.316 100.266 0.328048 93.8888 3.65818L95.7404 7.20382ZM115.318 2.684C122.641 2.684 129.152 4.20461 134.895 7.20382L136.746 3.65818C130.37 0.328048 123.212 -1.316 115.318 -1.316V2.684ZM134.895 7.20382C140.643 10.2055 145.114 14.3665 148.352 19.7L151.771 17.624C148.141 11.6455 143.118 6.98584 136.746 3.65818L134.895 7.20382ZM148.358 19.709C151.583 24.9582 153.213 30.9198 153.213 37.65H157.213C157.213 30.2402 155.408 23.5431 151.766 17.6149L148.358 19.709ZM153.213 37.65C153.213 44.38 151.583 50.3795 148.352 55.701L151.771 57.777C155.408 51.7865 157.213 45.06 157.213 37.65H153.213ZM148.358 55.6919C145.121 60.9595 140.649 65.0913 134.895 68.0962L136.746 71.6418C143.112 68.3173 148.134 63.6958 151.766 57.786L148.358 55.6919ZM134.895 68.0962C129.152 71.0954 122.641 72.616 115.318 72.616V76.616C123.212 76.616 130.37 74.9719 136.746 71.6418L134.895 68.0962ZM115.318 57.325C118.613 57.325 121.634 56.534 124.326 54.919L122.268 51.489C120.246 52.702 117.947 53.325 115.318 53.325V57.325ZM124.339 54.9106C127.081 53.2351 129.241 50.9129 130.815 47.9912L127.293 46.0948C126.038 48.4251 124.36 50.2102 122.254 51.4974L124.339 54.9106ZM130.824 47.9727C132.413 44.9467 133.175 41.4865 133.175 37.65H129.175C129.175 40.9509 128.522 43.7526 127.283 46.1133L130.824 47.9727ZM133.175 37.65C133.175 33.8151 132.414 30.3794 130.815 27.4098L127.293 29.3062C128.522 31.5886 129.175 34.3475 129.175 37.65H133.175ZM130.824 27.4283C129.251 24.4317 127.08 22.0884 124.304 20.4694L122.289 23.9246C124.361 25.1336 126.028 26.8976 127.283 29.2877L130.824 27.4283ZM124.361 20.5037C121.665 18.8089 118.632 17.975 115.318 17.975V21.975C117.929 21.975 120.215 22.6224 122.232 23.8903L124.361 20.5037ZM115.318 17.975C112.003 17.975 108.947 18.8088 106.195 20.4904L108.28 23.9036C110.377 22.6226 112.706 21.975 115.318 21.975V17.975ZM106.209 20.482C103.504 22.1045 101.377 24.4459 99.8108 27.4283L103.352 29.2877C104.615 26.8834 106.257 25.1175 108.267 23.912L106.209 20.482ZM99.8206 27.4098C98.2216 30.3794 97.4606 33.8151 97.4606 37.65H101.461C101.461 34.3475 102.114 31.5886 103.343 29.3062L99.8206 27.4098ZM97.4606 37.65C97.4606 41.4865 98.2222 44.9467 99.8108 47.9727L103.352 46.1133C102.113 43.7526 101.461 40.9509 101.461 37.65H97.4606ZM99.8206 47.9912C101.386 50.8991 103.503 53.2188 106.173 54.8973L108.302 51.5107C106.259 50.2265 104.605 48.4389 103.343 46.0948L99.8206 47.9912ZM106.23 54.9316C108.977 56.534 112.021 57.325 115.318 57.325V53.325C112.688 53.325 110.346 52.702 108.245 51.4764L106.23 54.9316ZM234.842 2.3H236.842V0.299995H234.842V2.3ZM234.842 73V75H236.842V73H234.842ZM211.41 73H209.41V75H211.41V73ZM211.41 20.783H213.41V18.783H211.41V20.783ZM195.25 20.783V18.783H193.298L193.25 20.7336L195.25 20.783ZM195.048 28.964L197.047 29.0173L197.047 29.0134L195.048 28.964ZM192.624 53.81L194.582 54.2179L192.624 53.81ZM185.554 68.96L187.008 70.3324L187.015 70.3257L187.021 70.3188L185.554 68.96ZM161.011 73L159.015 72.8733L158.909 74.5437L160.534 74.9424L161.011 73ZM162.223 53.911L162.672 51.9622L160.376 51.4323L160.227 53.7843L162.223 53.911ZM170.505 51.184L168.84 50.0746L168.827 50.0941L168.815 50.1139L170.505 51.184ZM173.232 43.104L175.212 43.3813L173.232 43.104ZM174.242 29.873L176.24 29.947L176.241 29.9389L174.242 29.873ZM175.151 2.3V0.299995H173.215L173.152 2.2341L175.151 2.3ZM232.842 2.3V73H236.842V2.3H232.842ZM234.842 71H211.41V75H234.842V71ZM213.41 73V20.783H209.41V73H213.41ZM211.41 18.783H195.25V22.783H211.41V18.783ZM193.25 20.7336L193.048 28.9146L197.047 29.0134L197.249 20.8324L193.25 20.7336ZM193.048 28.9107C192.781 38.947 191.979 47.0989 190.666 53.4021L194.582 54.2179C195.962 47.5931 196.776 39.181 197.047 29.0173L193.048 28.9107ZM190.666 53.4021C189.369 59.6252 187.137 64.3063 184.086 67.6012L187.021 70.3188C190.704 66.3417 193.185 60.9228 194.582 54.2179L190.666 53.4021ZM184.099 67.5876C181.208 70.6519 176.983 72.313 171.111 72.313V76.313C177.762 76.313 183.166 74.4054 187.008 70.3324L184.099 67.5876ZM171.111 72.313C168.13 72.313 164.924 71.9006 161.487 71.0576L160.534 74.9424C164.234 75.85 167.762 76.313 171.111 76.313V72.313ZM163.007 73.1267L164.219 54.0377L160.227 53.7843L159.015 72.8733L163.007 73.1267ZM161.773 55.8598C162.792 56.0949 163.818 56.214 164.849 56.214V52.214C164.129 52.214 163.404 52.1311 162.672 51.9622L161.773 55.8598ZM164.849 56.214C167.991 56.214 170.53 54.8819 172.194 52.2541L168.815 50.1139C167.921 51.5261 166.689 52.214 164.849 52.214V56.214ZM172.169 52.2934C173.735 49.944 174.715 46.9339 175.212 43.3813L171.251 42.8267C170.806 46.0074 169.968 48.384 168.84 50.0746L172.169 52.2934ZM175.212 43.3813C175.697 39.9195 176.037 35.4337 176.24 29.947L172.243 29.799C172.042 35.2203 171.709 39.5552 171.251 42.8267L175.212 43.3813ZM176.241 29.9389L177.15 2.36589L173.152 2.2341L172.243 29.8071L176.241 29.9389ZM175.151 4.3H234.842V0.299995H175.151V4.3ZM266.822 69.869L267.748 68.0962L266.822 69.869ZM252.581 56.739L250.872 57.777L250.877 57.786L252.581 56.739ZM252.581 18.662L254.285 19.7091L254.291 19.7L252.581 18.662ZM307.828 5.431L308.754 3.65818V3.65818L307.828 5.431ZM322.069 18.662L320.36 19.7L320.365 19.709L322.069 18.662ZM322.069 56.739L323.773 57.7861L323.779 57.777L322.069 56.739ZM307.828 69.869L308.754 71.6418L307.828 69.869ZM295.304 53.204L296.333 54.919L296.34 54.9148L296.347 54.9106L295.304 53.204ZM301.061 47.043L302.822 47.9912L302.827 47.982L302.832 47.9727L301.061 47.043ZM301.061 28.358L299.29 29.2877L299.295 29.297L299.3 29.3062L301.061 28.358ZM295.304 22.197L294.24 23.8903L294.268 23.9079L294.297 23.9246L295.304 22.197ZM279.245 22.197L280.274 23.912L280.281 23.9078L280.288 23.9036L279.245 22.197ZM273.589 28.358L275.35 29.3062L275.355 29.297L275.36 29.2877L273.589 28.358ZM273.589 47.043L271.819 47.9727L271.823 47.982L271.828 47.9912L273.589 47.043ZM279.245 53.204L278.181 54.8973L278.209 54.9149L278.238 54.9316L279.245 53.204ZM287.325 72.616C280.002 72.616 273.491 71.0954 267.748 68.0962L265.896 71.6418C272.273 74.9719 279.431 76.616 287.325 76.616V72.616ZM267.748 68.0962C261.994 65.0913 257.522 60.9595 254.285 55.6919L250.877 57.786C254.509 63.6958 259.53 68.3173 265.896 71.6418L267.748 68.0962ZM254.291 55.701C251.06 50.3795 249.43 44.38 249.43 37.65H245.43C245.43 45.06 247.235 51.7865 250.872 57.777L254.291 55.701ZM249.43 37.65C249.43 30.9198 251.06 24.9582 254.285 19.709L250.877 17.6149C247.235 23.5431 245.43 30.2402 245.43 37.65H249.43ZM254.291 19.7C257.529 14.3665 262 10.2055 267.748 7.20382L265.896 3.65818C259.524 6.98584 254.502 11.6455 250.872 17.624L254.291 19.7ZM267.748 7.20382C273.491 4.20461 280.002 2.684 287.325 2.684V-1.316C279.431 -1.316 272.273 0.328048 265.896 3.65818L267.748 7.20382ZM287.325 2.684C294.649 2.684 301.159 4.20461 306.902 7.20382L308.754 3.65818C302.377 0.328048 295.219 -1.316 287.325 -1.316V2.684ZM306.902 7.20382C312.65 10.2055 317.122 14.3665 320.36 19.7L323.779 17.624C320.149 11.6455 315.126 6.98584 308.754 3.65818L306.902 7.20382ZM320.365 19.709C323.591 24.9582 325.22 30.9198 325.22 37.65H329.22C329.22 30.2402 327.416 23.5431 323.773 17.6149L320.365 19.709ZM325.22 37.65C325.22 44.38 323.591 50.3795 320.36 55.701L323.779 57.777C327.416 51.7865 329.22 45.06 329.22 37.65H325.22ZM320.365 55.6919C317.129 60.9595 312.656 65.0913 306.902 68.0962L308.754 71.6418C315.12 68.3173 320.142 63.6958 323.773 57.786L320.365 55.6919ZM306.902 68.0962C301.159 71.0954 294.649 72.616 287.325 72.616V76.616C295.219 76.616 302.377 74.9719 308.754 71.6418L306.902 68.0962ZM287.325 57.325C290.621 57.325 293.642 56.534 296.333 54.919L294.275 51.489C292.254 52.702 289.955 53.325 287.325 53.325V57.325ZM296.347 54.9106C299.089 53.2351 301.249 50.9129 302.822 47.9912L299.3 46.0948C298.046 48.4251 296.368 50.2102 294.261 51.4974L296.347 54.9106ZM302.832 47.9727C304.421 44.9467 305.182 41.4865 305.182 37.65H301.182C301.182 40.9509 300.53 43.7526 299.29 46.1133L302.832 47.9727ZM305.182 37.65C305.182 33.8151 304.421 30.3794 302.822 27.4098L299.3 29.3062C300.529 31.5886 301.182 34.3475 301.182 37.65H305.182ZM302.832 27.4283C301.259 24.4317 299.087 22.0884 296.312 20.4694L294.297 23.9246C296.369 25.1336 298.036 26.8976 299.29 29.2877L302.832 27.4283ZM296.369 20.5037C293.672 18.8089 290.639 17.975 287.325 17.975V21.975C289.937 21.975 292.223 22.6224 294.24 23.8903L296.369 20.5037ZM287.325 17.975C284.011 17.975 280.954 18.8088 278.202 20.4904L280.288 23.9036C282.384 22.6226 284.714 21.975 287.325 21.975V17.975ZM278.216 20.482C275.512 22.1045 273.384 24.4459 271.819 27.4283L275.36 29.2877C276.622 26.8834 278.265 25.1175 280.274 23.912L278.216 20.482ZM271.828 27.4098C270.229 30.3794 269.468 33.8151 269.468 37.65H273.468C273.468 34.3475 274.121 31.5886 275.35 29.3062L271.828 27.4098ZM269.468 37.65C269.468 41.4865 270.23 44.9467 271.819 47.9727L275.36 46.1133C274.121 43.7526 273.468 40.9509 273.468 37.65H269.468ZM271.828 47.9912C273.394 50.8991 275.511 53.2188 278.181 54.8973L280.31 51.5107C278.267 50.2265 276.612 48.4389 275.35 46.0948L271.828 47.9912ZM278.238 54.9316C280.985 56.534 284.029 57.325 287.325 57.325V53.325C284.696 53.325 282.354 52.702 280.253 51.4764L278.238 54.9316ZM393.672 20.783V22.783H395.672V20.783H393.672ZM363.271 20.783V18.783H361.271V20.783H363.271ZM363.271 73V75H365.271V73H363.271ZM339.839 73H337.839V75H339.839V73ZM339.839 2.3V0.299995H337.839V2.3H339.839ZM393.672 2.3H395.672V0.299995H393.672V2.3ZM393.672 18.783H363.271V22.783H393.672V18.783ZM361.271 20.783V73H365.271V20.783H361.271ZM363.271 71H339.839V75H363.271V71ZM341.839 73V2.3H337.839V73H341.839ZM339.839 4.3H393.672V0.299995H339.839V4.3ZM391.672 2.3V20.783H395.672V2.3H391.672ZM476.327 54.517H478.327V52.517H476.327V54.517ZM476.327 86.837V88.837H478.327V86.837H476.327ZM454.511 86.837H452.511V88.837H454.511V86.837ZM454.511 73H456.511V71H454.511V73ZM414.313 73V71H412.313V73H414.313ZM414.313 86.837V88.837H416.313V86.837H414.313ZM392.497 86.837H390.497V88.837H392.497V86.837ZM392.497 54.517V52.517H390.497V54.517H392.497ZM403.203 46.74L401.301 46.1224L403.203 46.74ZM406.435 23.813L408.433 23.9062L408.433 23.8971L408.434 23.8881L406.435 23.813ZM407.243 2.3V0.299995H405.317L405.245 2.22493L407.243 2.3ZM467.035 2.3H469.035V0.299995H467.035V2.3ZM467.035 54.517H465.035V56.517H467.035V54.517ZM427.14 25.833L425.142 25.7531L425.142 25.7539L427.14 25.833ZM425.524 43.205L427.495 43.5429L427.496 43.5383L425.524 43.205ZM421.787 54.517L420.069 53.494L418.269 56.517H421.787V54.517ZM443.603 54.517V56.517H445.603V54.517H443.603ZM443.603 20.783H445.603V18.783H443.603V20.783ZM427.342 20.783V18.783H425.421L425.344 20.7031L427.342 20.783ZM474.327 54.517V86.837H478.327V54.517H474.327ZM476.327 84.837H454.511V88.837H476.327V84.837ZM456.511 86.837V73H452.511V86.837H456.511ZM454.511 71H414.313V75H454.511V71ZM412.313 73V86.837H416.313V73H412.313ZM414.313 84.837H392.497V88.837H414.313V84.837ZM394.497 86.837V54.517H390.497V86.837H394.497ZM392.497 56.517H394.517V52.517H392.497V56.517ZM394.517 56.517C397.032 56.517 399.267 55.7072 401.103 54.0628C402.899 52.4549 404.196 50.1573 405.105 47.3576L401.301 46.1224C400.527 48.5073 399.534 50.0983 398.435 51.0827C397.376 52.0306 396.109 52.517 394.517 52.517V56.517ZM405.105 47.3576C406.872 41.9157 407.959 34.0602 408.433 23.9062L404.437 23.7198C403.968 33.7658 402.901 41.195 401.301 46.1224L405.105 47.3576ZM408.434 23.8881L409.242 2.37506L405.245 2.22493L404.436 23.7379L408.434 23.8881ZM407.243 4.3H467.035V0.299995H407.243V4.3ZM465.035 2.3V54.517H469.035V2.3H465.035ZM467.035 56.517H476.327V52.517H467.035V56.517ZM425.142 25.7539C424.874 32.5004 424.341 38.201 423.552 42.8717L427.496 43.5383C428.323 38.6476 428.867 32.7669 429.139 25.9121L425.142 25.7539ZM423.553 42.8671C422.769 47.4386 421.583 50.9494 420.069 53.494L423.506 55.54C425.358 52.4286 426.663 48.3981 427.495 43.5429L423.553 42.8671ZM421.787 56.517H443.603V52.517H421.787V56.517ZM445.603 54.517V20.783H441.603V54.517H445.603ZM443.603 18.783H427.342V22.783H443.603V18.783ZM425.344 20.7031L425.142 25.7531L429.138 25.9129L429.34 20.8629L425.344 20.7031ZM539.252 60.678L541.119 59.959L540.625 58.678H539.252V60.678ZM512.386 60.678V58.678H511.014L510.52 59.959L512.386 60.678ZM507.639 73V75H509.012L509.506 73.719L507.639 73ZM483.399 73L481.567 72.1989L480.342 75H483.399V73ZM514.305 2.3V0.299995H512.997L512.473 1.49891L514.305 2.3ZM537.737 2.3L539.57 1.49891L539.046 0.299995H537.737V2.3ZM568.643 73V75H571.701L570.476 72.1989L568.643 73ZM543.999 73L542.133 73.719L542.627 75H543.999V73ZM532.687 43.508V45.508H535.604L534.553 42.7872L532.687 43.508ZM525.819 25.732L527.685 25.0112L525.819 20.1826L523.954 25.0112L525.819 25.732ZM518.951 43.508L517.086 42.7872L516.035 45.508H518.951V43.508ZM539.252 58.678H512.386V62.678H539.252V58.678ZM510.52 59.959L505.773 72.281L509.506 73.719L514.253 61.397L510.52 59.959ZM507.639 71H483.399V75H507.639V71ZM485.232 73.8011L516.138 3.10108L512.473 1.49891L481.567 72.1989L485.232 73.8011ZM514.305 4.3H537.737V0.299995H514.305V4.3ZM535.905 3.10108L566.811 73.8011L570.476 72.1989L539.57 1.49891L535.905 3.10108ZM568.643 71H543.999V75H568.643V71ZM545.866 72.281L541.119 59.959L537.386 61.397L542.133 73.719L545.866 72.281ZM534.553 42.7872L527.685 25.0112L523.954 26.4528L530.822 44.2288L534.553 42.7872ZM523.954 25.0112L517.086 42.7872L520.817 44.2288L527.685 26.4528L523.954 25.0112ZM518.951 45.508H532.687V41.508H518.951V45.508Z" fill="#CB2130"/>
</svg>
