<svg width="136" height="106" viewBox="0 0 136 106" fill="none" xmlns="http://www.w3.org/2000/svg">
<path d="M102.994 63.3615C112.384 57.8798 123.848 61.4971 124.837 62.0708C126.606 63.2022 127.738 63.8396 127.738 63.8396L130.624 65.4331L131.278 62.1664C132.155 57.6727 130.911 47.9682 119.846 43.4426C113.897 41.3541 107.668 40.1723 101.367 39.9369V19.9862H96.5842V39.7457C91.243 39.5704 86.5715 39.7457 84.0205 39.7457L74.9964 0.146973H28.7595L28.2174 39.8254H13.1665V44.6059H28.1377H32.9208C37.7447 45.3396 42.4279 46.8066 46.8078 48.9562C52.8758 52.486 57.7758 57.7158 60.9021 63.9989C61.8248 65.3995 62.439 66.9801 62.7037 68.636C62.7037 71.1378 62.5602 82.0056 62.5602 82.0215V84.4437H89.4414L89.9197 82.6749C89.9357 82.5314 93.81 68.7317 102.994 63.3615ZM33.4948 4.9275H45.1815L45.9787 43.9844C39.936 41.7535 32.9527 39.8094 32.9527 39.8094L33.4948 4.9275ZM64.904 61.3218C64.904 61.3218 58.5265 50.0716 50.8735 46.0241L49.9806 4.9275H71.1858L79.1577 40.2716H78.9026L79.1895 79.6472H67.3433C67.3433 76.269 67.455 70.373 67.455 68.6201C67.1952 66.0197 66.3208 63.5182 64.904 61.3218ZM85.8381 79.6472H84.0365L83.7814 44.59C89.2022 44.3669 108.191 43.8888 118.029 47.9204C124.071 50.4063 126 54.5494 126.511 57.5771C122.636 55.9836 110.647 53.3543 100.586 59.1706C91.7692 64.3814 87.3049 75.3447 85.8381 79.6472Z" fill="#CB2130"/>
<path d="M81.9796 91.3276H63.8835V96.1082H81.9796V91.3276Z" fill="#CB2130"/>
<path d="M28.5522 49.5618C23.0647 49.5618 17.7004 51.1883 13.1378 54.2357C8.57533 57.2831 5.01955 61.6144 2.92028 66.6818C0.821015 71.7492 0.27257 77.325 1.3443 82.704C2.41603 88.0829 5.05978 93.0234 8.94117 96.9005C12.8226 100.778 17.7672 103.417 23.1497 104.485C28.5322 105.553 34.1108 105.002 39.1797 102.901C44.2486 100.8 48.5802 97.2434 51.6266 92.6816C54.6731 88.1198 56.2975 82.7575 56.2943 77.2729C56.2859 69.9233 53.3598 62.8773 48.1585 57.6819C42.9572 52.4864 35.9058 49.566 28.5522 49.5618ZM28.5522 100.219C24.0113 100.219 19.5725 98.8737 15.7969 96.3523C12.0213 93.8309 9.07858 90.2471 7.34086 86.0542C5.60315 81.8612 5.14846 77.2474 6.03434 72.7963C6.92022 68.3451 9.10686 64.2564 12.3177 61.0472C15.5286 57.8381 19.6195 55.6527 24.0731 54.7673C28.5267 53.8819 33.143 54.3363 37.3382 56.0731C41.5334 57.8098 45.1191 60.7509 47.6419 64.5245C50.1646 68.298 51.5112 72.7345 51.5112 77.2729C51.4943 83.3491 49.0685 89.1709 44.7651 93.463C40.4618 97.7551 34.6317 100.167 28.5522 100.172V100.219Z" fill="#CB2130"/>
<path d="M115.749 65.9273C111.925 65.9241 108.187 67.0545 105.007 69.1755C101.827 71.2965 99.3474 74.3126 97.8828 77.8423C96.4183 81.372 96.0342 85.2566 96.7793 89.0045C97.5244 92.7524 99.3652 96.1952 102.069 98.8972C104.772 101.599 108.217 103.439 111.967 104.184C115.717 104.928 119.603 104.545 123.135 103.081C126.667 101.617 129.684 99.1391 131.806 95.9606C133.929 92.7821 135.06 89.0458 135.056 85.2247C135.048 80.1093 133.011 75.2058 129.392 71.5886C125.773 67.9715 120.867 65.9357 115.749 65.9273ZM115.749 99.7575C112.872 99.7606 110.059 98.911 107.666 97.316C105.273 95.721 103.406 93.4524 102.303 90.7972C101.2 88.1419 100.91 85.2194 101.469 82.3992C102.029 79.5791 103.412 76.9881 105.445 74.9541C107.478 72.92 110.069 71.5343 112.89 70.9723C115.711 70.4102 118.635 70.6971 121.293 71.7966C123.951 72.8961 126.223 74.7588 127.822 77.149C129.42 79.5393 130.273 82.3497 130.273 85.2247C130.269 89.075 128.738 92.7666 126.015 95.4906C123.293 98.2147 119.601 99.749 115.749 99.7575Z" fill="#CB2130"/>
</svg>
