<svg width="29" height="113" viewBox="0 0 29 113" fill="none" xmlns="http://www.w3.org/2000/svg">
<line x1="2.25" y1="3" x2="2.25" y2="110" stroke="#656565" stroke-width="0.5" stroke-dasharray="2 2"/>
<rect x="5" y="27" width="3" height="1" fill="white"/>
<path d="M4.54459 27.4618C4.54459 28.534 3.65068 29.4237 2.52229 29.4237C1.39391 29.4237 0.5 28.534 0.5 27.4618C0.5 26.3897 1.39391 25.5 2.52229 25.5C3.65068 25.5 4.54459 26.3897 4.54459 27.4618Z" fill="#CB2130" stroke="white"/>
<rect x="5" y="46" width="3" height="1" fill="white"/>
<path d="M4.54459 46.4618C4.54459 47.534 3.65068 48.4237 2.52229 48.4237C1.39391 48.4237 0.5 47.534 0.5 46.4618C0.5 45.3897 1.39391 44.5 2.52229 44.5C3.65068 44.5 4.54459 45.3897 4.54459 46.4618Z" fill="#656565" stroke="white"/>
<rect x="5" y="65" width="3" height="1" fill="white"/>
<path d="M4.54459 65.4618C4.54459 66.534 3.65068 67.4237 2.52229 67.4237C1.39391 67.4237 0.5 66.534 0.5 65.4618C0.5 64.3897 1.39391 63.5 2.52229 63.5C3.65068 63.5 4.54459 64.3897 4.54459 65.4618Z" fill="#514F4F" stroke="white"/>
<rect x="5" y="84" width="3" height="1" fill="white"/>
<path d="M4.54459 84.4618C4.54459 85.534 3.65068 86.4237 2.52229 86.4237C1.39391 86.4237 0.5 85.534 0.5 84.4618C0.5 83.3897 1.39391 82.5 2.52229 82.5C3.65068 82.5 4.54459 83.3897 4.54459 84.4618Z" fill="#514F4F" stroke="white"/>
<path d="M4.54459 2.46183C4.54459 3.53396 3.65068 4.42366 2.52229 4.42366C1.39391 4.42366 0.5 3.53396 0.5 2.46183C0.5 1.38971 1.39391 0.5 2.52229 0.5C3.65068 0.5 4.54459 1.38971 4.54459 2.46183Z" fill="#F7F7F7" stroke="#CB2130"/>
<path d="M4.54459 110.462C4.54459 111.534 3.65068 112.424 2.52229 112.424C1.39391 112.424 0.5 111.534 0.5 110.462C0.5 109.39 1.39391 108.5 2.52229 108.5C3.65068 108.5 4.54459 109.39 4.54459 110.462Z" fill="#F7F7F7" stroke="#CB2130"/>
<path d="M20.0752 26.2305V27.748C20.0752 28.5638 20.0023 29.252 19.8564 29.8125C19.7106 30.373 19.501 30.8242 19.2275 31.166C18.9541 31.5078 18.6237 31.7562 18.2363 31.9111C17.8535 32.0615 17.4206 32.1367 16.9375 32.1367C16.5547 32.1367 16.2015 32.0889 15.8779 31.9932C15.5544 31.8975 15.2627 31.7448 15.0029 31.5352C14.7477 31.321 14.529 31.043 14.3467 30.7012C14.1644 30.3594 14.0254 29.9447 13.9297 29.457C13.834 28.9694 13.7861 28.3997 13.7861 27.748V26.2305C13.7861 25.4147 13.859 24.7311 14.0049 24.1797C14.1553 23.6283 14.3672 23.1862 14.6406 22.8535C14.9141 22.5163 15.2422 22.2747 15.625 22.1289C16.0124 21.9831 16.4453 21.9102 16.9238 21.9102C17.3112 21.9102 17.6667 21.958 17.9902 22.0537C18.3184 22.1449 18.61 22.293 18.8652 22.498C19.1204 22.6986 19.3369 22.9674 19.5146 23.3047C19.6969 23.6374 19.8359 24.0452 19.9316 24.5283C20.0273 25.0114 20.0752 25.5788 20.0752 26.2305ZM18.8037 27.9531V26.0186C18.8037 25.5719 18.7764 25.18 18.7217 24.8428C18.6715 24.501 18.5964 24.2093 18.4961 23.9678C18.3958 23.7262 18.2682 23.5303 18.1133 23.3799C17.9629 23.2295 17.7874 23.1201 17.5869 23.0518C17.391 22.9788 17.1699 22.9424 16.9238 22.9424C16.623 22.9424 16.3564 22.9993 16.124 23.1133C15.8916 23.2227 15.6956 23.3981 15.5361 23.6396C15.3812 23.8812 15.2627 24.1979 15.1807 24.5898C15.0986 24.9818 15.0576 25.458 15.0576 26.0186V27.9531C15.0576 28.3997 15.0827 28.7939 15.1328 29.1357C15.1875 29.4775 15.2673 29.7738 15.3721 30.0244C15.4769 30.2705 15.6045 30.4733 15.7549 30.6328C15.9053 30.7923 16.0785 30.9108 16.2744 30.9883C16.4749 31.0612 16.696 31.0977 16.9375 31.0977C17.2474 31.0977 17.5186 31.0384 17.751 30.9199C17.9834 30.8014 18.1771 30.6169 18.332 30.3662C18.4915 30.111 18.61 29.7852 18.6875 29.3887C18.765 28.9876 18.8037 28.5091 18.8037 27.9531ZM25.8584 21.9922V32H24.5938V23.5713L22.0439 24.501V23.3594L25.6602 21.9922H25.8584Z" fill="#656565"/>
<path d="M18.0537 45.8789V46.9629C18.0537 47.5456 18.0016 48.0371 17.8975 48.4375C17.7933 48.8379 17.6436 49.1602 17.4482 49.4043C17.2529 49.6484 17.0169 49.8258 16.7402 49.9365C16.4668 50.0439 16.1576 50.0977 15.8125 50.0977C15.5391 50.0977 15.2868 50.0635 15.0557 49.9951C14.8245 49.9268 14.6162 49.8177 14.4307 49.668C14.2484 49.515 14.0921 49.3164 13.9619 49.0723C13.8317 48.8281 13.7324 48.5319 13.6641 48.1836C13.5957 47.8353 13.5615 47.4284 13.5615 46.9629V45.8789C13.5615 45.2962 13.6136 44.8079 13.7178 44.4141C13.8252 44.0202 13.9766 43.7044 14.1719 43.4668C14.3672 43.2259 14.6016 43.0534 14.875 42.9492C15.1517 42.8451 15.4609 42.793 15.8027 42.793C16.0794 42.793 16.3333 42.8271 16.5645 42.8955C16.7988 42.9606 17.0072 43.0664 17.1895 43.2129C17.3717 43.3561 17.5264 43.5482 17.6533 43.7891C17.7835 44.0267 17.8828 44.318 17.9512 44.6631C18.0195 45.0081 18.0537 45.4134 18.0537 45.8789ZM17.1455 47.1094V45.7275C17.1455 45.4085 17.126 45.1286 17.0869 44.8877C17.0511 44.6436 16.9974 44.4352 16.9258 44.2627C16.8542 44.0902 16.763 43.9502 16.6523 43.8428C16.5449 43.7354 16.4196 43.6572 16.2764 43.6084C16.1364 43.5563 15.9785 43.5303 15.8027 43.5303C15.5879 43.5303 15.3975 43.571 15.2314 43.6523C15.0654 43.7305 14.9255 43.8558 14.8115 44.0283C14.7008 44.2008 14.6162 44.4271 14.5576 44.707C14.499 44.987 14.4697 45.3271 14.4697 45.7275V47.1094C14.4697 47.4284 14.4876 47.71 14.5234 47.9541C14.5625 48.1982 14.6195 48.4098 14.6943 48.5889C14.7692 48.7646 14.8604 48.9095 14.9678 49.0234C15.0752 49.1374 15.1989 49.222 15.3389 49.2773C15.4821 49.3294 15.64 49.3555 15.8125 49.3555C16.0339 49.3555 16.2275 49.3132 16.3936 49.2285C16.5596 49.1439 16.6979 49.012 16.8086 48.833C16.9225 48.6507 17.0072 48.418 17.0625 48.1348C17.1178 47.8483 17.1455 47.5065 17.1455 47.1094ZM23.874 49.2578V50H19.2207V49.3506L21.5498 46.7578C21.8363 46.4388 22.0576 46.1686 22.2139 45.9473C22.3734 45.7227 22.484 45.5225 22.5459 45.3467C22.611 45.1676 22.6436 44.9854 22.6436 44.7998C22.6436 44.5654 22.5947 44.3538 22.4971 44.165C22.4027 43.973 22.2627 43.82 22.0771 43.7061C21.8916 43.5921 21.667 43.5352 21.4033 43.5352C21.0876 43.5352 20.8239 43.597 20.6123 43.7207C20.404 43.8411 20.2477 44.0104 20.1436 44.2285C20.0394 44.4466 19.9873 44.6973 19.9873 44.9805H19.084C19.084 44.5801 19.1719 44.2139 19.3477 43.8818C19.5234 43.5498 19.7839 43.2861 20.1289 43.0908C20.474 42.8923 20.8988 42.793 21.4033 42.793C21.8525 42.793 22.2367 42.8727 22.5557 43.0322C22.8747 43.1885 23.1188 43.4098 23.2881 43.6963C23.4606 43.9795 23.5469 44.3115 23.5469 44.6924C23.5469 44.9007 23.5111 45.1123 23.4395 45.3271C23.3711 45.5387 23.2751 45.7503 23.1514 45.9619C23.0309 46.1735 22.8893 46.3818 22.7266 46.5869C22.5671 46.792 22.3962 46.9938 22.2139 47.1924L20.3096 49.2578H23.874Z" fill="#656565"/>
<path d="M18.0537 64.8789V65.9629C18.0537 66.5456 18.0016 67.0371 17.8975 67.4375C17.7933 67.8379 17.6436 68.1602 17.4482 68.4043C17.2529 68.6484 17.0169 68.8258 16.7402 68.9365C16.4668 69.0439 16.1576 69.0977 15.8125 69.0977C15.5391 69.0977 15.2868 69.0635 15.0557 68.9951C14.8245 68.9268 14.6162 68.8177 14.4307 68.668C14.2484 68.515 14.0921 68.3164 13.9619 68.0723C13.8317 67.8281 13.7324 67.5319 13.6641 67.1836C13.5957 66.8353 13.5615 66.4284 13.5615 65.9629V64.8789C13.5615 64.2962 13.6136 63.8079 13.7178 63.4141C13.8252 63.0202 13.9766 62.7044 14.1719 62.4668C14.3672 62.2259 14.6016 62.0534 14.875 61.9492C15.1517 61.8451 15.4609 61.793 15.8027 61.793C16.0794 61.793 16.3333 61.8271 16.5645 61.8955C16.7988 61.9606 17.0072 62.0664 17.1895 62.2129C17.3717 62.3561 17.5264 62.5482 17.6533 62.7891C17.7835 63.0267 17.8828 63.318 17.9512 63.6631C18.0195 64.0081 18.0537 64.4134 18.0537 64.8789ZM17.1455 66.1094V64.7275C17.1455 64.4085 17.126 64.1286 17.0869 63.8877C17.0511 63.6436 16.9974 63.4352 16.9258 63.2627C16.8542 63.0902 16.763 62.9502 16.6523 62.8428C16.5449 62.7354 16.4196 62.6572 16.2764 62.6084C16.1364 62.5563 15.9785 62.5303 15.8027 62.5303C15.5879 62.5303 15.3975 62.571 15.2314 62.6523C15.0654 62.7305 14.9255 62.8558 14.8115 63.0283C14.7008 63.2008 14.6162 63.4271 14.5576 63.707C14.499 63.987 14.4697 64.3271 14.4697 64.7275V66.1094C14.4697 66.4284 14.4876 66.71 14.5234 66.9541C14.5625 67.1982 14.6195 67.4098 14.6943 67.5889C14.7692 67.7646 14.8604 67.9095 14.9678 68.0234C15.0752 68.1374 15.1989 68.222 15.3389 68.2773C15.4821 68.3294 15.64 68.3555 15.8125 68.3555C16.0339 68.3555 16.2275 68.3132 16.3936 68.2285C16.5596 68.1439 16.6979 68.012 16.8086 67.833C16.9225 67.6507 17.0072 67.418 17.0625 67.1348C17.1178 66.8483 17.1455 66.5065 17.1455 66.1094ZM20.5342 65.001H21.1787C21.4945 65.001 21.7549 64.9489 21.96 64.8447C22.1683 64.7373 22.3229 64.5924 22.4238 64.4102C22.528 64.2246 22.5801 64.0163 22.5801 63.7852C22.5801 63.5117 22.5345 63.2822 22.4434 63.0967C22.3522 62.9111 22.2155 62.7712 22.0332 62.6768C21.8509 62.5824 21.6198 62.5352 21.3398 62.5352C21.0859 62.5352 20.8613 62.5856 20.666 62.6865C20.474 62.7842 20.3226 62.9242 20.2119 63.1064C20.1045 63.2887 20.0508 63.5036 20.0508 63.751H19.1475C19.1475 63.3896 19.2386 63.0609 19.4209 62.7646C19.6032 62.4684 19.8587 62.2324 20.1875 62.0566C20.5195 61.8809 20.9036 61.793 21.3398 61.793C21.7695 61.793 22.1455 61.8695 22.4678 62.0225C22.79 62.1722 23.0407 62.3968 23.2197 62.6963C23.3988 62.9925 23.4883 63.362 23.4883 63.8047C23.4883 63.9837 23.446 64.1758 23.3613 64.3809C23.2799 64.5827 23.1514 64.7715 22.9756 64.9473C22.8031 65.123 22.5785 65.2679 22.3018 65.3818C22.0251 65.4925 21.693 65.5479 21.3057 65.5479H20.5342V65.001ZM20.5342 65.7432V65.2012H21.3057C21.7581 65.2012 22.1325 65.2549 22.4287 65.3623C22.7249 65.4697 22.9577 65.613 23.127 65.792C23.2995 65.971 23.4199 66.168 23.4883 66.3828C23.5599 66.5944 23.5957 66.806 23.5957 67.0176C23.5957 67.3496 23.5387 67.6442 23.4248 67.9014C23.3141 68.1585 23.1562 68.3766 22.9512 68.5557C22.7493 68.7347 22.5117 68.8698 22.2383 68.9609C21.9648 69.0521 21.667 69.0977 21.3447 69.0977C21.0355 69.0977 20.7441 69.0537 20.4707 68.9658C20.2005 68.8779 19.9613 68.751 19.7529 68.585C19.5446 68.4157 19.3818 68.209 19.2646 67.9648C19.1475 67.7174 19.0889 67.4359 19.0889 67.1201H19.9922C19.9922 67.3675 20.0459 67.584 20.1533 67.7695C20.264 67.9551 20.4202 68.0999 20.6221 68.2041C20.8271 68.305 21.068 68.3555 21.3447 68.3555C21.6214 68.3555 21.859 68.3083 22.0576 68.2139C22.2594 68.1162 22.4141 67.9697 22.5215 67.7744C22.6322 67.5791 22.6875 67.3333 22.6875 67.0371C22.6875 66.7409 22.6257 66.4984 22.502 66.3096C22.3783 66.1175 22.2025 65.9759 21.9746 65.8848C21.75 65.7904 21.4847 65.7432 21.1787 65.7432H20.5342Z" fill="#656565"/>
<path d="M18.0537 83.8789V84.9629C18.0537 85.5456 18.0016 86.0371 17.8975 86.4375C17.7933 86.8379 17.6436 87.1602 17.4482 87.4043C17.2529 87.6484 17.0169 87.8258 16.7402 87.9365C16.4668 88.0439 16.1576 88.0977 15.8125 88.0977C15.5391 88.0977 15.2868 88.0635 15.0557 87.9951C14.8245 87.9268 14.6162 87.8177 14.4307 87.668C14.2484 87.515 14.0921 87.3164 13.9619 87.0723C13.8317 86.8281 13.7324 86.5319 13.6641 86.1836C13.5957 85.8353 13.5615 85.4284 13.5615 84.9629V83.8789C13.5615 83.2962 13.6136 82.8079 13.7178 82.4141C13.8252 82.0202 13.9766 81.7044 14.1719 81.4668C14.3672 81.2259 14.6016 81.0534 14.875 80.9492C15.1517 80.8451 15.4609 80.793 15.8027 80.793C16.0794 80.793 16.3333 80.8271 16.5645 80.8955C16.7988 80.9606 17.0072 81.0664 17.1895 81.2129C17.3717 81.3561 17.5264 81.5482 17.6533 81.7891C17.7835 82.0267 17.8828 82.318 17.9512 82.6631C18.0195 83.0081 18.0537 83.4134 18.0537 83.8789ZM17.1455 85.1094V83.7275C17.1455 83.4085 17.126 83.1286 17.0869 82.8877C17.0511 82.6436 16.9974 82.4352 16.9258 82.2627C16.8542 82.0902 16.763 81.9502 16.6523 81.8428C16.5449 81.7354 16.4196 81.6572 16.2764 81.6084C16.1364 81.5563 15.9785 81.5303 15.8027 81.5303C15.5879 81.5303 15.3975 81.571 15.2314 81.6523C15.0654 81.7305 14.9255 81.8558 14.8115 82.0283C14.7008 82.2008 14.6162 82.4271 14.5576 82.707C14.499 82.987 14.4697 83.3271 14.4697 83.7275V85.1094C14.4697 85.4284 14.4876 85.71 14.5234 85.9541C14.5625 86.1982 14.6195 86.4098 14.6943 86.5889C14.7692 86.7646 14.8604 86.9095 14.9678 87.0234C15.0752 87.1374 15.1989 87.222 15.3389 87.2773C15.4821 87.3294 15.64 87.3555 15.8125 87.3555C16.0339 87.3555 16.2275 87.3132 16.3936 87.2285C16.5596 87.1439 16.6979 87.012 16.8086 86.833C16.9225 86.6507 17.0072 86.418 17.0625 86.1348C17.1178 85.8483 17.1455 85.5065 17.1455 85.1094ZM24.0205 85.6074V86.3496H18.8838V85.8174L22.0674 80.8906H22.8047L22.0137 82.3164L19.9092 85.6074H24.0205ZM23.0293 80.8906V88H22.126V80.8906H23.0293Z" fill="#656565"/>
</svg>
