<svg width="39" height="37" viewBox="0 0 39 37" fill="none" xmlns="http://www.w3.org/2000/svg">
<path fill-rule="evenodd" clip-rule="evenodd" d="M32.6529 4.67054C35.5838 7.43796 37.4442 11.1554 37.905 15.1655C37.9702 15.7406 38.0048 16.3189 38.0086 16.8977V17.7638C37.8323 20.7426 36.8701 23.6209 35.2203 26.1044C33.5704 28.588 31.2923 30.5875 28.6188 31.8986L26.511 30.0192C28.9916 29.0182 31.1418 27.3385 32.7164 25.1717C34.2911 23.0048 35.2269 20.438 35.4171 17.7638H30.2341V15.1655H35.3567C34.8938 11.8422 33.301 8.78108 30.8473 6.49922C28.3936 4.21737 25.2294 2.85476 21.8895 2.64162V6.68633H19.3585V2.6676C16.9845 2.88226 14.6978 3.67039 12.6939 4.96455C10.6901 6.25871 9.0288 8.02037 7.85222 10.0988L6.17639 7.95084C7.61844 5.70596 9.55859 3.82573 11.8453 2.45701C14.132 1.08829 16.7033 0.268145 19.3585 0.0606269C19.7293 0.0165195 20.1138 0.0274216 20.4388 0.0366377C20.5605 0.0400895 20.6739 0.0433048 20.7752 0.0433048H21.8895C25.9095 0.264084 29.722 1.90313 32.6529 4.67054ZM20.4555 27.4814L17.9418 30.0797C16.8827 29.5812 15.8633 29.0021 14.8925 28.3475C12.5274 26.2582 10.3428 23.9722 8.36188 21.5139C7.75114 20.5346 7.2224 19.5062 6.78107 18.4393L9.69219 16.248L10.1414 14.7237L5.07068 8.36646C3.83051 8.93147 2.64492 9.6099 1.52897 10.3931C0.67151 11.1858 0.128521 12.2623 -1.66132e-05 13.4245C-0.112315 17.4692 2.26323 21.6525 4.82881 25.013L4.77698 25.065C5.71498 26.2495 6.71558 27.3828 7.77448 28.4601C7.81313 28.5103 7.85652 28.5568 7.90405 28.5987C8.84714 29.6028 9.8419 30.5568 10.8843 31.4568H10.9361C14.1755 34.1937 18.3392 36.8267 22.5374 37.0432C23.7362 37.0273 24.8939 36.6027 25.8199 35.8393C26.7094 34.8382 27.5047 33.7567 28.1955 32.6087L22.0536 27.2302L20.4555 27.4814ZM12.0332 20.4054C12.4305 19.9377 12.9488 19.2882 13.5881 18.4654C14.5296 17.3221 15.2553 16.3434 15.8254 15.5466C16.2626 14.9934 16.5325 14.3261 16.6028 13.6238C16.6145 13.3087 16.51 13.0004 16.3091 12.7577C16.2208 12.6537 16.1109 12.5703 15.987 12.5135C15.8632 12.4566 15.7284 12.4277 15.5922 12.4286C15.0393 12.4286 14.616 12.8876 14.331 13.7537C14.2037 14.1512 14.0297 14.5321 13.8127 14.8883C13.7265 15.0175 13.6072 15.121 13.4674 15.1881C13.3276 15.2551 13.1723 15.2832 13.0179 15.2694C12.8412 15.2722 12.6662 15.2346 12.5061 15.1596C12.3459 15.0846 12.2049 14.9741 12.0936 14.8364C11.817 14.5251 11.6714 14.1184 11.6876 13.7018C11.697 13.303 11.7699 12.9083 11.9036 12.5325C12.0459 12.1029 12.2464 11.6949 12.4996 11.32C12.8632 10.7933 13.3456 10.36 13.9077 10.0555C14.4399 9.77247 15.0329 9.62383 15.6354 9.62243C16.1717 9.61569 16.7037 9.71884 17.1989 9.92556C17.6428 10.112 18.0429 10.3893 18.3737 10.7397C18.7049 11.091 18.9607 11.5066 19.1252 11.9609C19.3083 12.4479 19.3991 12.9649 19.393 13.4853C19.3666 14.6066 18.9955 15.6925 18.3305 16.5946C17.4149 17.8777 16.4225 19.1041 15.3589 20.2669H17.7949C19.0561 20.2669 19.6954 20.7432 19.6954 21.6526C19.6954 22.562 19.0561 23.0211 17.7949 23.0211H13.0784C11.99 23.0211 11.4544 22.5187 11.4544 21.6526C11.5006 21.1831 11.7047 20.7433 12.0332 20.4054ZM26.6165 9.87717C27.0951 9.95394 27.5283 10.2057 27.8327 10.5838C28.2674 11.2528 28.4652 12.049 28.3942 12.8443V17.6079C28.5663 17.581 28.7423 17.5945 28.9083 17.6476C29.0743 17.7006 29.2258 17.7916 29.3506 17.9135C29.4755 18.0353 29.5704 18.1846 29.6278 18.3495C29.6851 18.5144 29.7035 18.6905 29.6813 18.8638C29.6961 19.0347 29.6771 19.2069 29.6252 19.3705C29.5733 19.534 29.4896 19.6856 29.3789 19.8165C29.1019 20.041 28.7491 20.1496 28.3942 20.1196V21.592C28.4263 22.0138 28.3034 22.4327 28.0486 22.7699C27.9291 22.9051 27.781 23.0118 27.6151 23.0822C27.4492 23.1526 27.2698 23.185 27.0898 23.177C26.3382 23.177 25.9582 22.614 25.9582 21.5054V20.0936H22.5028C22.2785 20.1082 22.0535 20.0774 21.8413 20.003C21.6291 19.9286 21.4339 19.8121 21.2675 19.6606C21.1209 19.5034 21.0078 19.3178 20.935 19.1153C20.8622 18.9128 20.8313 18.6975 20.8443 18.4827C20.8434 18.0893 20.9016 17.6981 21.017 17.3221C21.1932 16.8757 21.41 16.4466 21.6649 16.0403L24.3773 11.2594C24.5845 10.8381 24.879 10.466 25.2412 10.1681C25.648 9.90403 26.138 9.8004 26.6165 9.87717ZM23.2198 17.6079H25.9927V12.6451L23.2198 17.6079Z" fill="#CB2130"/>
</svg>
